<?xml version="1.0" encoding="utf-8"?>
<!-- Generator: Adobe Illustrator 15.1.0, SVG Export Plug-In . SVG Version: 6.00 Build 0)  -->
<!DOCTYPE svg PUBLIC "-//W3C//DTD SVG 1.1//EN" "http://www.w3.org/Graphics/SVG/1.1/DTD/svg11.dtd">
<svg version="1.1" id="Layer_1" xmlns="http://www.w3.org/2000/svg" xmlns:xlink="http://www.w3.org/1999/xlink" x="0px" y="0px"
	width="264px" height="427px" viewBox="0 0 264 427" enable-background="new 0 0 264 427" xml:space="preserve">
<g>
	<g>
		<path fill="none" stroke="currentColor" d="M9.37,121.533c0.654,1.765,5.703,1.934,6.75,3.5c1.047,1.567-1.075,5.279,0.342,6.646
			s7.146,0.437,8.908,1.604c1.763,1.167-0.439,4.433,1.647,5.398s11.466-1.162,13.853-0.398c1.5,2,1.25,4.25,5.25,5.75
			c6.25-0.75,4.25-0.25,13.25-2.25c4.25,0.5,3.604,3.351,6.75,3.5c2.5,1,4,0.25,8.25-0.75c3-1,4.464-3.235,8-3.5
			c3.536-0.266,5.554,4.975,9.25,4.5s10.167-6.065,14-6.75s3.75,2,8.75,1.5c5.92,0.709,9.25-1,12-4.75
			c3.75-2.75,3.146-2.428,7.25-3.75c4.103-1.322,9.354,1.286,13.5-0.25c4.146-1.536,5.776-6.329,9.75-8s11.717-1.211,15.5-3
			s5.674-6.108,9.25-8c3.578-1.892,9.898-1.771,13.25-3.75c3.354-1.979,5.139-6.951,8.25-9c3.113-2.049,8.646-2.147,11.5-4.25
			c2.855-2.103,2.92-7.108,5.5-9.25c2.58-2.141,8.461-1.336,10.75-3.5s1.521-8.08,3.5-10.25c1.98-2.169,7.596-1.59,9.25-3.75
			c1.654-2.16-1.062-7.616,0.25-9.75c1.312-2.134,5.297-1.658,6.25-3.75s-2.076-6.965-1.5-9c0.576-2.034,2-1,3.75-3.25
			c1.5-2.5,1.25-2.25,0-4.5c-0.75-1.5-3.596-1.485-4.25-3.25c-0.652-1.765,2.547-6.684,1.5-8.25s-5.084,0.117-6.5-1.25
			s1.514-7.083-0.25-8.25c-1.762-1.167-7.15,0.279-9.236-0.687s-0.127-5.3-2.514-6.063c-2.385-0.764-8.838,1.06-11.5,0.5
			s-1.084-3.645-4-4c-2.916-0.355-10.605,3.003-13.75,2.853c-3.146-0.149-4.148-2.411-7.5-2.353s-9.057,2.434-12.591,2.699
			c-3.535,0.265-6.212-1.423-9.908-0.949c-3.695,0.475-8.41,3.112-12.243,3.797c-3.832,0.685-7.311-0.193-11.257,0.703
			s-8.358,3.566-12.395,4.674c-4.036,1.109-8.253,0.754-12.355,2.076c-3.75,3-6,3.25-12,4.25c-5.5,2-2.75,4.75-15.25,5.75
			c-3.974,1.671-5.029,4.079-8.813,5.868s-8.36,1.99-11.937,3.882c-3.577,1.892-6.154,5.476-9.507,7.454s-8.13,2.498-11.243,4.546
			c-3.334,2.195-3.736,5.019-7.415,7.729c-2.855,2.103-7.005,2.63-9.585,4.771s-3.591,5.896-5.88,8.06s-5.89,1.521-7.87,3.69
			c-1.98,2.17-2.095,5.59-3.75,7.75s-5.938,1.366-7.25,3.5c-1.312,2.134,0.953,5.908,0,8c-0.953,2.092-5,1.25-5.75,6
			c-0.5,2.75,4.433,3.789,4.25,5.75c0.281,0.955,0.553,3.795-0.5,5.75C11.346,115.404,6.287,116.785,9.37,121.533z"/>

		<ellipse transform="matrix(-0.9377 0.3475 -0.3475 -0.9377 272.2037 97.1099)" fill="none" stroke="currentColor" cx="127.394" cy="72.963" rx="95.516" ry="41.402"/>
		<path fill="none" stroke="currentColor" stroke-width="0.828" d="M170.033,98.579c-0.463-6.438-23.914-9.994-52.377-7.942
			c-28.464,2.051-51.163,8.934-50.699,15.371c0.464,6.437,23.915,9.992,52.379,7.939c9.322-0.671,18.026-1.86,25.5-3.383"/>
		<path fill="none" stroke="currentColor" d="M172.87,97.283c-3.25-5.25-14.75-11.5-59-8.5c-38.51,2.611-54.25,11.25-51.25,23.5
			c3.008,12.283,1.249,6.092,2.583,10.925"/>
	</g>
	<g>
		<line fill="none" stroke="currentColor" x1="8.871" y1="118.535" x2="16.368" y2="381.208"/>
		<line fill="none" stroke="currentColor" x1="253.371" y1="41.87" x2="252.369" y2="373.201"/>
		<line fill="none" stroke="currentColor" stroke-opacity="0.6" stroke-width="0.75" x1="16.371" y1="130.368" x2="24.535" y2="391.871"/>
		<line fill="none" stroke="currentColor" stroke-opacity="0.6" stroke-width="0.75" x1="26.037" y1="137.367" x2="38.201" y2="399.204"/>
		<line fill="none" stroke="currentColor" stroke-opacity="0.6" stroke-width="0.75" x1="40.371" y1="138.368" x2="53.035" y2="408.37"/>
		<line fill="none" stroke="currentColor" stroke-opacity="0.6" stroke-width="0.75" x1="59.37" y1="142.199" x2="68.87" y2="412.033"/>
		<line fill="none" stroke="currentColor" stroke-opacity="0.6" stroke-width="0.75" x1="82.871" y1="140.701" x2="91.703" y2="415.202"/>
		<line fill="none" stroke="currentColor" stroke-opacity="0.6" stroke-width="0.75" x1="107.37" y1="138.866" x2="116.536" y2="417.869"/>
		<line fill="none" stroke="currentColor" stroke-opacity="0.6" stroke-width="0.75" x1="133.703" y1="131.701" x2="142.537" y2="417.868"/>
		<line fill="none" stroke="currentColor" stroke-opacity="0.6" stroke-width="0.75" x1="156.87" y1="123.033" x2="165.704" y2="416.701"/>
		<line fill="none" stroke="currentColor" stroke-opacity="0.6" stroke-width="0.75" x1="183.371" y1="111.702" x2="186.871" y2="412.201"/>
		<line fill="none" stroke="currentColor" stroke-opacity="0.6" stroke-width="0.75" x1="204.037" y1="99.202" x2="207.537" y2="407.368"/>
		<line fill="none" stroke="currentColor" stroke-opacity="0.6" stroke-width="0.75" x1="220.871" y1="85.536" x2="222.039" y2="401.367"/>
		<line fill="none" stroke="currentColor" stroke-opacity="0.6" stroke-width="0.75" x1="235.369" y1="71.533" x2="235.205" y2="393.534"/>
		<line fill="none" stroke="currentColor" stroke-opacity="0.6" stroke-width="0.75" x1="244.037" y1="67.869" x2="243.705" y2="385.701"/>

		<path fill="none" stroke="currentColor" d="M252.371,372.701c-0.666,2.5-2.176,5.525-2.5,6.5c-0.32,0.441-0.834,4.167-2.334,6.167
			c-0.344,0.438-3.082,1.085-3.666,0.167c-0.367,0.433-1.609,5.572-2,6c-1.498,1.639-4.844,0.111-6.668,1.666
			c-1.824,1.554-0.201,3.705-2.332,5.167s-7.582,1.057-10.002,2.415c-2.418,1.358-2.145,3.671-4.832,4.918
			c-2.686,1.247-7.734,0.706-10.668,1.832c-2.932,1.126-3.586,3.369-6.746,4.365s-11.137-0.222-14.504,0.635
			c-3.368,0.857-4.194,3.042-7.75,3.75s-9.526-0.05-13.25,0.5s-5.878,2.117-9.75,2.5c-3.871,0.383-10.75-1.457-14.75-1.25
			c-4,0.206-7.474,2.146-11.582,2.166c-3.569,0.018-4.583,0.334-8.333-0.666c-3.833-0.667-2.291-1.657-6.167-2
			s-10.189,2.762-13.918,2.25s-6.019-4.245-9.582-4.917c-3.563-0.672-10.289,1.22-13.666,0.397c-3.377-0.822-3.832-2.267-7.002-3.23
			s-8.806,0.596-11.75-0.5c-2.945-1.097-3.219-2.113-5.917-3.333c-2.817-1.273-4.167-0.5-8-4.167
			c-2.432-1.333-3.954-1.656-6.167-4.333c-2.146-1.439-2.333-1.5-4.667-2.667c-2-0.5-5.25-1.167-6.833-1.833
			c-0.458-0.491-2.334-2.167-3.167-4.834c-1.917-0.833-5.386-3.82-5.75-4.333c-0.364-0.514-1.502-0.825-1.752-4.825"/>
	</g>
</g>
</svg>
